<?xml version="1.0" standalone="no"?>
<!DOCTYPE svg PUBLIC "-//W3C//DTD SVG 20010904//EN"
 "http://www.w3.org/TR/2001/REC-SVG-20010904/DTD/svg10.dtd">
<svg version="1.0" xmlns="http://www.w3.org/2000/svg"
 width="510.000000pt" height="378.000000pt" viewBox="0 0 510.000000 378.000000"
 preserveAspectRatio="xMidYMid meet">
<metadata>
Created by potrace 1.16, written by Peter Selinger 2001-2019
</metadata>
<g transform="translate(0.000000,378.000000) scale(0.100000,-0.100000)"
fill="#000000" stroke="none">
<path d="M682 2157 c-138 -138 -252 -257 -252 -262 0 -13 502 -515 515 -515
13 0 175 162 175 176 0 5 -19 29 -43 52 l-43 42 -39 -40 c-21 -22 -44 -40 -50
-40 -16 0 -328 316 -324 328 6 16 311 322 321 322 11 0 328 -315 328 -327 0
-5 -25 -33 -55 -63 -30 -30 -55 -59 -55 -65 0 -6 18 -28 40 -50 35 -34 41 -37
57 -25 39 30 203 195 203 206 0 14 -499 514 -514 514 -6 0 -125 -114 -264
-253z"/>
<path d="M1974 2323 c-43 -47 -78 -91 -76 -97 5 -17 65 -76 77 -76 6 0 26 16
45 35 19 19 40 35 48 35 21 0 324 -307 320 -324 -4 -21 -306 -326 -323 -326
-7 0 -28 19 -46 42 -42 51 -137 146 -212 213 -35 30 -57 57 -57 70 0 12 23 43
56 74 l56 53 -43 44 c-24 24 -46 44 -50 44 -3 0 -54 -48 -112 -107 l-106 -107
109 -116 c151 -158 200 -207 313 -313 l98 -91 255 255 c140 140 253 260 252
266 -4 18 -499 513 -513 513 -7 0 -47 -39 -91 -87z"/>
<path d="M2787 2174 c-4 -4 -7 -13 -7 -21 0 -10 26 -13 114 -13 63 0 117 -4
120 -8 2 -4 -21 -41 -52 -81 -148 -192 -201 -267 -202 -283 0 -16 14 -18 165
-18 140 0 165 2 165 15 0 13 -22 15 -135 15 -108 0 -135 3 -135 14 0 12 46 75
210 286 28 35 49 71 48 80 -3 12 -26 15 -144 18 -77 1 -143 -1 -147 -4z"/>
<path d="M3906 2115 c-4 -20 -13 -35 -21 -35 -24 0 -27 -20 -6 -38 19 -15 21
-30 23 -147 l3 -130 28 -13 c26 -13 67 -9 67 6 0 4 -14 13 -30 19 l-31 11 3
129 3 128 28 3 c36 4 35 18 -3 26 -27 5 -30 10 -30 41 0 47 -26 47 -34 0z"/>
<path d="M3219 2057 c-36 -24 -51 -57 -25 -57 8 0 26 11 40 25 36 36 97 35
126 -2 12 -15 20 -38 18 -52 -3 -25 -7 -26 -83 -33 -73 -7 -82 -10 -109 -39
-24 -27 -28 -38 -23 -75 6 -60 28 -78 92 -78 42 -1 58 4 77 22 30 27 44 28 58
2 8 -15 21 -20 48 -20 l37 1 -27 20 c-28 20 -28 22 -28 130 0 83 -4 116 -16
134 -31 48 -129 60 -185 22z m150 -146 c20 -13 7 -80 -22 -109 -33 -32 -100
-41 -127 -17 -25 23 -26 76 -2 98 30 27 124 45 151 28z"/>
<path d="M3620 2055 c-34 -25 -50 -25 -50 1 0 8 -9 14 -20 14 -20 0 -20 -5
-18 -157 3 -141 5 -158 21 -161 15 -3 17 7 17 94 0 119 14 170 51 190 44 22
85 18 108 -12 19 -24 21 -40 21 -150 0 -119 1 -124 21 -124 20 0 20 4 17 141
-3 140 -3 141 -31 165 -38 32 -92 32 -137 -1z"/>
<path d="M4130 2062 c-51 -26 -72 -69 -72 -151 0 -100 30 -148 105 -166 60
-15 157 19 157 55 0 15 -21 12 -41 -6 -23 -21 -87 -29 -122 -15 -28 11 -57 61
-57 100 0 19 8 21 118 23 l117 3 3 27 c6 47 -32 117 -72 133 -47 20 -93 19
-136 -3z m134 -37 c21 -19 27 -33 24 -58 l-3 -32 -84 -3 c-92 -3 -105 3 -95
48 15 66 107 92 158 45z"/>
<path d="M4517 2060 c-30 -24 -43 -25 -51 -5 -3 8 -12 15 -21 15 -14 0 -15
-28 -13 -227 3 -195 5 -228 18 -228 12 0 16 17 18 83 2 45 5 82 7 82 3 0 22
-9 42 -20 86 -46 158 -9 183 95 14 60 10 106 -16 160 -29 63 -115 86 -167 45z
m95 -21 c62 -33 64 -215 2 -255 -31 -21 -90 -13 -118 15 -17 17 -20 34 -21 99
0 85 13 123 49 140 28 14 63 14 88 1z"/>
</g>
</svg>
