<?xml version="1.0" standalone="no"?>
<!DOCTYPE svg PUBLIC "-//W3C//DTD SVG 20010904//EN"
 "http://www.w3.org/TR/2001/REC-SVG-20010904/DTD/svg10.dtd">
<svg version="1.0" xmlns="http://www.w3.org/2000/svg"
 width="510.000000pt" height="378.000000pt" viewBox="0 0 510.000000 378.000000"
 preserveAspectRatio="xMidYMid meet">

<g transform="translate(0.000000,378.000000) scale(0.100000,-0.100000)"
fill="#000000" stroke="none">
<path d="M2 1893 l-2 -1893 2553 2 2552 3 -2547 2 -2548 3 -3 1888 -2 1887 -3
-1892z"/>
<path d="M678 2163 c-142 -142 -257 -262 -255 -266 4 -13 488 -507 507 -517
14 -8 33 7 104 77 47 48 86 92 86 98 0 6 -20 30 -44 54 l-44 43 -40 -36 c-22
-20 -44 -36 -50 -36 -16 0 -307 299 -307 316 0 8 69 84 154 170 l155 155 158
-158 c87 -87 158 -162 158 -168 0 -5 -25 -35 -56 -66 l-56 -57 42 -46 c23 -25
48 -46 54 -46 6 0 60 49 119 108 l108 108 -260 262 c-142 144 -263 262 -267
262 -5 0 -124 -116 -266 -257z"/>
<path d="M1977 2332 c-48 -48 -87 -91 -87 -95 0 -4 20 -28 45 -54 l45 -46 46
43 46 43 159 -159 c88 -87 159 -163 159 -168 0 -14 -303 -316 -317 -316 -14 0
-323 302 -323 316 0 5 26 34 57 66 l57 58 -44 45 c-24 25 -49 45 -55 45 -12 0
-215 -201 -215 -214 0 -11 250 -270 401 -414 l120 -115 260 259 c142 142 259
263 259 269 0 10 -510 525 -520 525 -3 0 -45 -39 -93 -88z"/>
<path d="M2775 2170 c-15 -24 11 -30 121 -30 74 0 114 -4 114 -11 0 -6 -42
-64 -92 -130 -149 -193 -171 -226 -165 -243 5 -14 29 -16 161 -16 162 0 186 3
186 26 0 11 -26 14 -134 14 -74 0 -137 4 -140 9 -4 5 40 69 96 143 159 206
160 207 156 226 -3 15 -20 17 -150 20 -92 2 -149 -1 -153 -8z"/>
<path d="M3905 2119 c-4 -18 -15 -33 -25 -36 -27 -7 -34 -34 -11 -40 18 -5 20
-16 23 -140 3 -152 11 -167 78 -161 43 4 49 31 8 36 -36 4 -40 20 -36 152 3
102 4 104 28 110 36 9 38 38 3 42 -23 2 -29 8 -31 36 -4 41 -28 42 -37 1z"/>
<path d="M3218 2064 c-24 -12 -48 -42 -48 -57 0 -3 7 -8 16 -11 10 -4 29 5 50
24 54 47 122 33 135 -27 8 -42 -5 -53 -65 -54 -83 -2 -108 -11 -133 -48 -40
-60 -23 -119 42 -147 39 -16 101 -3 127 27 17 20 38 25 38 10 0 -19 32 -41 59
-41 40 0 45 11 16 34 -28 23 -33 50 -34 174 -1 68 -3 76 -30 103 -26 26 -36
29 -88 29 -32 -1 -70 -7 -85 -16z m153 -166 c5 -55 -14 -93 -58 -113 -69 -33
-130 11 -103 74 6 17 24 34 39 40 39 14 121 13 122 -1z"/>
<path d="M3534 2067 c-2 -7 -3 -82 -2 -167 3 -147 4 -155 23 -155 19 0 20 8
25 126 5 137 11 151 64 169 42 14 84 -1 91 -32 3 -13 6 -77 8 -143 2 -117 3
-120 25 -123 l23 -4 -3 152 c-3 148 -4 152 -28 170 -38 30 -110 27 -149 -6
l-30 -25 -7 25 c-6 27 -31 35 -40 13z"/>
<path d="M4125 2068 c-45 -26 -62 -58 -71 -129 -8 -67 9 -134 41 -163 38 -35
97 -49 147 -35 41 10 88 43 88 61 0 21 -33 19 -56 -3 -19 -18 -37 -24 -70 -24
-54 0 -91 33 -96 85 l-3 35 118 3 117 3 0 40 c0 85 -57 139 -145 139 -27 0
-59 -6 -70 -12z m137 -45 c9 -10 20 -32 24 -50 l6 -31 -81 -4 c-45 -2 -86 -1
-91 0 -6 2 -10 16 -10 32 0 43 53 84 99 76 19 -3 43 -13 53 -23z"/>
<path d="M4437 2073 c-4 -3 -7 -109 -7 -235 0 -221 1 -228 20 -228 18 0 20 7
20 85 l0 85 42 -22 c23 -12 57 -22 75 -22 33 0 81 28 93 55 4 7 12 24 18 36
17 32 15 134 -3 176 -22 52 -59 77 -114 77 -33 0 -54 -6 -69 -20 -12 -11 -25
-20 -30 -20 -6 0 -12 9 -15 20 -5 20 -18 26 -30 13z m180 -47 c24 -21 28 -32
31 -92 7 -126 -24 -174 -104 -160 -43 9 -65 48 -66 120 -2 80 10 115 45 137
42 25 60 24 94 -5z"/>
</g>
</svg>
